<svg width="49" height="22" viewBox="0 0 49 22" fill="none" xmlns="http://www.w3.org/2000/svg">
<g clip-path="url(#clip0_22_10)">
<path d="M48.5833 0.0161529C46.5273 2.1397 44.735 4.04763 42.8591 5.86736C42.547 6.17119 41.8713 6.17119 41.3629 6.17119C30.661 6.18752 19.9591 6.18099 9.25719 6.18099C8.82924 6.18099 8.35303 6.06338 7.98621 6.21693C7.57757 6.39008 7.26546 6.80825 6.91474 7.12188C7.25581 7.38324 7.5647 7.78509 7.94438 7.8733C8.50426 8.00398 9.11239 7.9125 9.70122 7.9125C12.536 7.91577 15.3739 7.86349 18.2087 7.9321C21.835 8.02031 24.6086 10.4412 25.1813 13.9075C25.7219 17.1712 23.8428 20.3336 20.5608 21.5816C19.9237 21.8234 19.2158 21.9802 18.5369 21.9835C12.4008 22.0096 6.26155 21.9998 0 21.9998C1.93059 19.9645 3.73569 18.0108 5.61159 16.1323C5.88509 15.8579 6.50609 15.8742 6.96622 15.8709C10.3383 15.8481 13.7104 15.8775 17.0793 15.8317C17.8387 15.8219 19.1064 16.2695 19.071 14.9366C19.0388 13.6428 17.7679 14.1035 17.0117 14.0904C13.9099 14.0349 10.8049 14.1002 7.69984 14.0545C3.81614 13.9989 0.84946 11.0162 0.788325 7.18069C0.730407 3.37463 3.61664 0.0782259 7.46817 0.0520899C21.0563 -0.0393862 34.6445 0.0161529 48.5833 0.0161529Z" fill="white"/>
<path d="M26.581 21.6864C26.581 17.632 26.5424 13.5744 26.6261 9.52004C26.6357 8.99406 27.2567 8.04336 27.6107 8.03356C31.8516 7.92901 36.0924 7.96495 40.5231 7.96495C38.7759 9.7814 37.2894 11.5358 35.5679 13.0125C34.9566 13.5385 33.7821 13.3914 32.6656 13.5875C33.4733 16.09 31.4268 17.1289 30.0915 18.5729C29.049 19.7 28.0032 20.8304 26.9607 21.9608C26.8352 21.8726 26.7065 21.7811 26.581 21.6864Z" fill="#5EEAD4"/>
</g>
<defs>
<clipPath id="clip0_22_10">
<rect width="48.5833" height="22" fill="white"/>
</clipPath>
</defs>
</svg>
