<svg width="73" height="33" viewBox="0 0 73 33" fill="none" xmlns="http://www.w3.org/2000/svg">
<g id="Vector">
<path d="M0 32.47C1.26 30.82 2.52 29.16 3.79 27.52C5.71 25.03 7.67 22.57 9.56 20.07C10.11 19.34 10.68 19.06 11.63 19.07C17.82 19.12 24.02 19.08 30.21 19.08C37.31 19.08 44.41 19.13 51.5 19.05C52.75 19.04 54.08 18.71 55.22 18.19C57.33 17.24 57.4 13.29 55.45 12.05C54.33 11.33 53.02 11.23 51.72 11.22C48.96 11.2 46.2 11.21 43.44 11.2C35.4 11.18 27.35 11.25 19.31 11.09C15.15 11 11.1 10.09 7.6 7.65999C6.39 6.81999 5.3 5.75999 4.35 4.63999C3.61 3.75999 3.16 2.63999 2.64 1.58999C2.31 0.919994 2.49 0.639993 3.23 0.549993C3.74 0.489993 4.26 0.499994 4.77 0.519994C10.47 0.659994 16.18 0.459993 21.88 0.489993C30.37 0.539993 38.86 0.489994 47.36 0.499994C50.01 0.499994 52.67 0.509994 55.32 0.609994C59.35 0.759994 63.28 1.47999 66.81 3.54999C69.22 4.96999 71.08 6.94999 71.96 9.67999C73.69 15.02 73.24 20.19 70.36 25.01C68.75 27.7 66.23 29.4 63.34 30.58C59.3 32.22 55.09 32.78 50.77 32.78C40.94 32.78 31.1 32.78 21.27 32.78C14.56 32.78 7.85 32.77 1.14 32.76C0.78 32.76 0.42 32.76 0.06 32.76C0.04 32.67 0.02 32.57 0 32.47Z" fill="#5EEAD4"/>
<path d="M0 32.47C1.26 30.82 2.52 29.16 3.79 27.52C5.71 25.03 7.67 22.57 9.56 20.07C10.11 19.34 10.68 19.06 11.63 19.07C17.82 19.12 24.02 19.08 30.21 19.08C37.31 19.08 44.41 19.13 51.5 19.05C52.75 19.04 54.08 18.71 55.22 18.19C57.33 17.24 57.4 13.29 55.45 12.05C54.33 11.33 53.02 11.23 51.72 11.22C48.96 11.2 46.2 11.21 43.44 11.2C35.4 11.18 27.35 11.25 19.31 11.09C15.15 11 11.1 10.09 7.6 7.65999C6.39 6.81999 5.3 5.75999 4.35 4.63999C3.61 3.75999 3.16 2.63999 2.64 1.58999C2.31 0.919994 2.49 0.639993 3.23 0.549993C3.74 0.489993 4.26 0.499994 4.77 0.519994C10.47 0.659994 16.18 0.459993 21.88 0.489993C30.37 0.539993 38.86 0.489994 47.36 0.499994C50.01 0.499994 52.67 0.509994 55.32 0.609994C59.35 0.759994 63.28 1.47999 66.81 3.54999C69.22 4.96999 71.08 6.94999 71.96 9.67999C73.69 15.02 73.24 20.19 70.36 25.01C68.75 27.7 66.23 29.4 63.34 30.58C59.3 32.22 55.09 32.78 50.77 32.78C40.94 32.78 31.1 32.78 21.27 32.78C14.56 32.78 7.85 32.77 1.14 32.76C0.78 32.76 0.42 32.76 0.06 32.76C0.04 32.67 0.02 32.57 0 32.47Z" fill="black" fill-opacity="0.2"/>
</g>
</svg>
